<svg width="30px" height="30px" viewBox="0 0 30 30" version="1.1" xmlns="http://www.w3.org/2000/svg" xmlns:xlink="http://www.w3.org/1999/xlink">
    <g id="Page-1" stroke="none" stroke-width="1" fill="none" fill-rule="evenodd">
        <g id="Main-Screen" transform="translate(-1364.000000, -84.000000)" fill="#FFD700" fill-rule="nonzero">
            <g id="trophy-count" transform="translate(1271.000000, 73.000000)">
                <g id="trophy" transform="translate(93.000000, 11.000000)">
                    <path d="M24,0 C22.65,0 21,1.5 21,3 L9,3 C9,1.5 7.35,0 6,0 L0,0 L0,13.5 C0,15 1.5,16.5 3,16.5 L6.3,16.5 C6.9,19.5 8.85,22.05 13.5,22.5 L13.5,25.62 C9,26.31 9,30 9,30 L21,30 C21,30 21,26.31 16.5,25.62 L16.5,22.5 C21.15,22.05 23.1,19.5 23.7,16.5 L27,16.5 C28.5,16.5 30,15 30,13.5 L30,0 L24,0 M6,13.5 L3,13.5 L3,3 L6,3 L6,13.5 M27,13.5 L24,13.5 L24,3 L27,3 L27,13.5 Z" id="Shape"></path>
                </g>
            </g>
        </g>
    </g>
</svg>